<?xml version="1.0" encoding="UTF-8" standalone="no"?>
<!-- Created with Inkscape (http://www.inkscape.org/) -->

<svg
   width="100mm"
   height="100mm"
   viewBox="0 0 100 100"
   version="1.1"
   id="svg1"
   inkscape:version="1.4.4 (dcaf3e7, 2026-05-05)"
   sodipodi:docname="smiling-guy.svg"
   xmlns:inkscape="http://www.inkscape.org/namespaces/inkscape"
   xmlns:sodipodi="http://sodipodi.sourceforge.net/DTD/sodipodi-0.dtd"
   xmlns:xlink="http://www.w3.org/1999/xlink"
   xmlns="http://www.w3.org/2000/svg"
   xmlns:svg="http://www.w3.org/2000/svg">
  <sodipodi:namedview
     id="namedview1"
     pagecolor="#ffffff"
     bordercolor="#000000"
     borderopacity="0.25"
     inkscape:showpageshadow="2"
     inkscape:pageopacity="0.0"
     inkscape:pagecheckerboard="0"
     inkscape:deskcolor="#d1d1d1"
     inkscape:document-units="mm"
     inkscape:zoom="2.0792508"
     inkscape:cx="229.16908"
     inkscape:cy="267.16353"
     inkscape:window-width="3440"
     inkscape:window-height="1369"
     inkscape:window-x="-8"
     inkscape:window-y="-8"
     inkscape:window-maximized="1"
     inkscape:current-layer="layer1" />
  <defs
     id="defs1">
    <linearGradient
       id="swatch8"
       inkscape:swatch="solid">
      <stop
         style="stop-color:#000000;stop-opacity:1;"
         offset="0"
         id="stop9" />
    </linearGradient>
    <linearGradient
       id="linearGradient7"
       inkscape:collect="always">
      <stop
         style="stop-color:#000000;stop-opacity:0;"
         offset="0"
         id="stop8" />
      <stop
         style="stop-color:#000000;stop-opacity:1;"
         offset="1"
         id="stop7" />
    </linearGradient>
    <radialGradient
       inkscape:collect="always"
       xlink:href="#linearGradient7"
       id="radialGradient8"
       cx="63.115681"
       cy="122.92288"
       fx="63.115681"
       fy="122.92288"
       r="3.5629821"
       gradientTransform="matrix(1,0,0,1.2142856,-18.715608,-103.00262)"
       gradientUnits="userSpaceOnUse" />
    <radialGradient
       inkscape:collect="always"
       xlink:href="#linearGradient7"
       id="radialGradient8-4"
       cx="63.115681"
       cy="122.92288"
       fx="63.115681"
       fy="122.92288"
       r="3.5629821"
       gradientTransform="matrix(1,0,0,1.2142856,-9.8717729,-102.98794)"
       gradientUnits="userSpaceOnUse" />
  </defs>
  <g
     inkscape:groupmode="layer"
     id="layer2"
     inkscape:label="Layer 2"
     style="display:inline">
    <path
       style="fill:none;fill-opacity:1;stroke:#000000;stroke-width:0.998;stroke-opacity:1"
       id="path9"
       d="m 41.78418,38.231871 c -0.883406,-1.2898 -2.075989,-2.36406 -2.845115,-3.72915 0.04582,-0.12588 0.05271,-0.27389 0.137452,-0.37763 0.514799,-0.63025 1.725339,-0.88185 2.425935,-1.23879 0.168881,-0.0861 0.317106,-0.20771 0.475657,-0.31157 0.09055,-0.15152 0.217935,-0.28642 0.271637,-0.45457 0.365157,-1.14331 -0.889627,-3.04954 -1.439015,-3.96818 -0.506918,-0.79279 -1.026044,-1.58361 -1.676445,-2.26852 -0.949561,-0.99993 -2.104578,-1.7826 -3.172505,-2.65498 0,0 1.961613,2.22277 1.961613,2.22277 v 0 c -0.60048,-0.5195 -1.201145,-1.03878 -1.801435,-1.5585 -0.168785,-0.14613 0.346681,0.28228 0.506918,0.43774 0.679257,0.65899 1.20935,1.44271 1.722858,2.23236 0.513268,0.83197 1.02801,1.65574 1.369968,2.57721 0.107058,0.28849 0.280125,0.77402 0.216606,1.1147 -0.02373,0.12723 -0.115787,0.23151 -0.17368,0.34727 -0.143793,0.0919 -0.278966,0.19889 -0.431377,0.27563 -0.829505,0.41765 -1.967878,0.64527 -2.581658,1.40635 -0.138176,0.17133 -0.193231,0.39554 -0.289846,0.59331 0.08389,0.17723 0.14872,0.36479 0.251669,0.53166 0.141592,0.2295 0.79348,1.01894 0.938302,1.19451 0.97971,1.18768 0.194535,0.20252 1.152234,1.42791 0.158838,0.20323 0.318133,0.40611 0.477198,0.60916 z" />
    <path
       style="fill:none;fill-opacity:1;stroke:#000000;stroke-width:0.998;stroke-opacity:1"
       id="path10"
       d="m 46.049496,34.586911 c 0.853303,-1.46936 1.330291,-3.00205 1.494383,-4.68667 0.04003,-1.5263 -0.523095,-2.90535 -1.159055,-4.25666 -0.477062,-0.9724 -1.053325,-1.88856 -1.517131,-2.8675 0,0 -2.471201,-1.63683 -2.471201,-1.63683 v 0 c 0.447593,0.99225 1.022961,1.9098 1.523267,2.87528 0.631024,1.31584 1.243923,2.63783 1.253546,4.13238 -0.121706,1.67286 -0.562105,3.11908 -1.426581,4.56453 z" />
    <path
       style="fill:none;fill-opacity:1;stroke:#000000;stroke-width:0.998;stroke-opacity:1"
       id="path11"
       d="m 51.449333,32.492491 c 0.84808,-1.70617 1.50611,-3.54855 1.7705,-5.44383 0.0478,-0.34239 0.0567,-0.68907 0.0851,-1.03361 0.049,-1.32281 -0.23406,-2.58562 -0.87623,-3.73728 -0.0515,-0.0902 -0.21811,-0.34343 -0.22669,-0.47733 -0.0216,-0.33737 0.59254,-0.55632 0.81647,-0.66121 0.20836,-0.0753 0.37489,-0.14953 0.50847,-0.32276 0,0 -2.32099,-1.89359 -2.32099,-1.89359 v 0 c -0.0578,0.0409 -0.30606,0.21807 -0.38688,0.21025 -0.62493,0.32409 -1.37767,0.74472 -0.889,1.53119 0.72084,1.07383 1.01695,2.32055 1.01375,3.60981 -0.0196,0.33731 -0.0182,0.67651 -0.0589,1.01193 -0.22571,1.85769 -0.87078,3.67276 -1.72728,5.32606 z" />
    <path
       style="fill:none;fill-opacity:1;stroke:#000000;stroke-width:0.998;stroke-opacity:1"
       id="path12"
       d="m 54.840963,34.758381 c 1.4389,-0.94569 2.3827,-1.9804 3.05341,-3.58745 0.15019,-0.35985 0.26022,-0.73517 0.39032,-1.10275 0.53046,-1.69012 0.74128,-3.09373 -0.007,-4.73229 -0.35537,-0.63954 -0.74455,-0.97121 -0.70839,-1.73391 0.0769,-0.34745 0.024,-0.17637 0.16036,-0.5127 0,0 -2.33815,-1.84877 -2.33815,-1.84877 v 0 c -0.17458,0.38446 -0.10198,0.18835 -0.21896,0.58789 -0.11538,0.93434 0.11139,1.1191 0.62573,1.87873 0.8743,1.54388 0.67415,2.90636 0.17852,4.56306 -0.12374,0.35855 -0.2274,0.72466 -0.37123,1.07563 -0.64132,1.56502 -1.56199,2.55138 -2.9796,3.4377 z" />
    <path
       style="fill:none;fill-opacity:1;stroke:#000000;stroke-width:0.998;stroke-opacity:1"
       id="path13"
       d="m 56.604553,37.736651 c 1.37597,-1.27453 3.04573,-2.10204 4.68668,-2.96708 0.71906,-0.52542 1.97347,-0.65273 2.51651,-1.40386 0.0732,-0.10119 0.11103,-0.2237 0.16655,-0.33555 0.0186,-0.13811 0.0545,-0.27498 0.0557,-0.41432 0.01,-1.08064 -0.69589,-2.72188 -1.08277,-3.72937 -0.27403,-0.96919 -1.027,-2.19542 -0.99505,-3.22321 0.004,-0.12661 0.0385,-0.25041 0.0578,-0.37561 0.31186,-0.82789 1.09975,-1.3419 1.76278,-1.88126 0,0 -2.22755,-1.94228 -2.22755,-1.94228 v 0 c -0.72242,0.58808 -1.54831,1.13732 -1.90779,2.0313 -0.0824,0.37671 -0.14613,0.52092 -0.094,0.92053 0.12873,0.98731 0.68779,1.88982 0.9641,2.83254 0.49444,1.25726 1.0711,2.5659 1.13218,3.93108 -0.032,0.0844 -0.0457,0.17819 -0.096,0.25315 -0.41476,0.61859 -1.84337,0.90535 -2.43076,1.36099 -1.65773,0.88105 -3.33002,1.74294 -4.74798,2.99775 z" />
  </g>
  <g
     inkscape:label="Layer 1"
     inkscape:groupmode="layer"
     id="layer1">
    <ellipse
       style="display:inline;mix-blend-mode:normal;fill:#ffffff;fill-opacity:1;stroke:#000000;stroke-width:0.300178;stroke-opacity:1"
       id="path8"
       cx="49.362808"
       cy="53.768597"
       rx="14.219092"
       ry="21.599554" />
    <ellipse
       style="display:inline;fill:url(#radialGradient8-4);fill-opacity:1;stroke-width:0.998"
       id="path1-5"
       cx="53.243912"
       cy="46.275555"
       rx="3.5629821"
       ry="4.326478" />
    <ellipse
       style="fill:url(#radialGradient8);fill-opacity:1;stroke-width:0.998"
       id="path1"
       cx="44.400078"
       cy="46.260876"
       rx="3.5629821"
       ry="4.326478" />
    <path
       style="fill:#ffffff;fill-opacity:1;stroke:#000000;stroke-width:0.998;stroke-opacity:1"
       d="m 48.217553,49.060351 c -0.169667,0.33934 -0.848328,0.84833 -0.508997,1.018 0.33933,0.16966 0.777267,-1.28626 0.508997,-1.018 -0.599858,0.59986 -1.006168,1.36636 -1.526992,2.03599 -0.542084,0.69697 -1.154822,1.29165 -1.526993,2.03599 -0.105947,0.2119 0.161433,0.85657 0,1.018 -0.05999,0.06 -0.194514,-0.06 -0.254497,0 -0.09916,0.0992 0,0.86269 0,1.01799 0,0.1048 -0.06737,0.69613 0,0.7635 0.02729,0.0273 2.529004,0 2.799485,0 0.169666,0 0.389024,0.11997 0.508997,0 0.52657,-0.52657 -0.804664,0.0206 0.2545,-0.509 0.15175,-0.0759 0.38903,0.11997 0.509,0 0.06,-0.06 -0.06,-0.19451 0,-0.2545 0.15369,-0.15369 1.28564,0 1.52699,0"
       id="path14" />
    <path
       style="fill:#ffffff;fill-opacity:1;stroke:#000000;stroke-width:0.998;stroke-opacity:1"
       d="m 40.837091,57.967811 c 0,0.33933 -0.339333,1.01799 0,1.01799 0.339331,0 -0.0823,-1.34719 0,-1.01799 0.165881,0.66352 0.186444,1.35544 0.254497,2.03599 0.01688,0.16882 -0.07588,0.35724 0,0.50899 0.03794,0.0759 0.194514,-0.06 0.2545,0 0.104828,0.10483 0.197943,0.59384 0.254498,0.7635 0.123724,0.37118 0.48328,1.50128 0.763497,1.78149 0.05999,0.06 0.216559,-0.0759 0.254498,0 0.07588,0.15176 -0.07588,0.35725 0,0.509 0.03794,0.0759 0.194514,-0.06 0.2545,0 0.11997,0.11997 -0.07588,0.35724 0,0.509 0.1016,0.2032 0.407397,0.30579 0.508997,0.50899 0.299813,0.59963 0.347327,1.04199 0.508998,1.527 0.09745,0.29233 0.607597,0.3531 0.763495,0.50899 0.05999,0.06 -0.03794,0.17863 0,0.2545 0.221887,0.44378 1.337717,1.55961 1.781492,1.78149 0.244168,0.12209 0.765292,0.42477 1.017995,0.509 0.160957,0.0536 0.357243,-0.0759 0.508998,0 0.07587,0.0379 -0.05999,0.19452 0,0.2545 0.183605,0.18361 1.232787,0 1.526987,0 0.55979,0 1.80568,-0.0121 2.29049,-0.2545 0.60764,-0.30382 3.27423,-4.00346 3.56299,-4.58098 0.0608,-0.12165 0.73539,-2.00789 0.76349,-2.03599 0.93864,-0.93863 0.26045,0.47924 0.509,-0.76349 0.17661,-0.88306 0.6147,-1.9929 1.01799,-2.79949 0.0537,-0.1073 0.2254,-0.13811 0.2545,-0.2545 0.0617,-0.2469 -0.0617,-0.51659 0,-0.76349 0.0756,-0.30229 0.8849,-1.40559 0.509,-1.78149 -0.17996,-0.17996 -1.49881,0 -1.78149,0 -0.52605,0 -2.81261,0.0131 -3.05399,0.2545 -0.06,0.06 0.06,0.19451 0,0.25449 -0.06,0.06 -0.19451,-0.06 -0.25449,0 -0.18038,0.18038 -1.08384,2.16766 -1.2725,2.54499 -0.29553,0.59106 -0.86386,0.98216 -1.27249,1.52699 -0.39435,0.5258 -0.42309,1.0742 -1.018,1.2725 -0.68704,0.22901 -3.320664,-0.006 -3.817477,-0.2545 -1.059164,-0.52958 0.272068,0.0176 -0.2545,-0.509 -0.05999,-0.06 -0.194514,0.06 -0.254498,0 -0.05999,-0.06 0,-0.16966 0,-0.2545 -0.08483,-0.0848 -0.154678,-0.18795 -0.2545,-0.2545 -0.157832,-0.10522 -0.374864,-0.12036 -0.508997,-0.2545 -0.30108,-0.30107 -0.587859,-1.86035 -0.763495,-2.03599 -0.392671,-0.39266 -2.860384,-0.48133 -3.053985,-0.50899 z"
       id="path15" />
    <path
       style="fill:#ffffff;fill-opacity:1;stroke:#000000;stroke-width:0.998;stroke-opacity:1"
       d="m 43.891076,58.985801 c -0.08483,0.33934 -0.593831,0.93317 -0.2545,1.018 0.339333,0.0848 0.410924,-1.33084 0.2545,-1.018 -0.313584,0.62717 -1.203158,4.07198 -2.03599,4.07198"
       id="path20" />
    <path
       style="fill:#ffffff;fill-opacity:1;stroke:#000000;stroke-width:0.998;stroke-opacity:1"
       d="m 45.799251,61.860481 c 0.02524,0.3611 -0.175631,0.68953 -0.224946,1.03476 -0.06083,0.42582 0.07725,-0.0679 -0.04499,0.35991 -0.06694,0.23428 -0.145733,0.48026 -0.179959,0.71983 -0.0085,0.0594 0.0085,0.12058 0,0.17996 -0.02511,0.17579 -0.109686,0.42089 -0.179956,0.58486 -0.0213,0.0497 -0.07288,0.0837 -0.08998,0.13497 -0.01423,0.0427 0.0088,0.0909 0,0.13497 -0.02696,0.13478 -0.331756,0.57353 -0.404905,0.71983 -0.01889,0.0378 -0.01884,0.15381 -0.04499,0.17996 -0.09858,0.0986 -0.0849,0.0298 -0.134969,0.17996 -0.03087,0.0926 0.03387,0.14609 -0.04499,0.22494"
       id="path23" />
    <path
       style="fill:#ffffff;fill-opacity:1;stroke:#000000;stroke-width:0.998;stroke-opacity:1"
       d="m 47.688807,62.490331 c -0.0511,0.38026 0.07062,0.79311 0,1.16973 -0.02885,0.15388 -0.104262,0.29636 -0.134969,0.44989 -0.154676,0.77338 0.200498,-0.40524 -0.04499,0.49488 -0.05883,0.21571 -0.155133,0.42041 -0.224949,0.62986 -0.07196,0.21587 -0.06956,0.4568 -0.134969,0.67484 -0.0232,0.0773 -0.06677,0.14759 -0.08998,0.22495 -0.108778,0.36258 -0.120126,0.73019 -0.269939,1.07974 -0.07099,0.16564 -0.13707,0.36833 -0.179956,0.53988 -0.04834,0.19335 -0.03661,0.44151 -0.179959,0.58486"
       id="path24" />
    <path
       style="fill:#ffffff;fill-opacity:1;stroke:#000000;stroke-width:0.998;stroke-opacity:1"
       d="m 49.623353,62.310371 c -0.0289,1.14129 -0.0217,2.28625 -0.13497,3.4192 -0.0208,0.20787 0.0208,0.42198 0,0.62985 -0.0167,0.16684 -0.0748,0.32791 -0.09,0.49489 -0.0198,0.21768 0,0.45568 0,0.67484 0,0.47989 0,0.95977 0,1.43966"
       id="path25" />
    <path
       style="fill:#ffffff;fill-opacity:1;stroke:#000000;stroke-width:0.998;stroke-opacity:1"
       d="m 50.478153,61.500561 c 0.26239,0.33283 0.48647,0.67827 0.62985,1.07975 0.0367,0.10282 0.0494,0.21356 0.09,0.31493 0.0498,0.12454 0.13485,0.23359 0.17996,0.35991 0.0307,0.0859 0.0252,0.18089 0.045,0.26994 0.0402,0.18108 0.10566,0.3567 0.13497,0.53987 0.29234,1.82711 -0.0657,-0.14104 0.045,0.8548 0.0449,0.40424 0.18828,0.81137 0.22495,1.21472 0.0299,0.32933 -0.01,0.66296 0.045,0.98976 0.0153,0.0918 0.1054,0.18124 0.13496,0.26994 0.0662,0.19863 0.26994,0.67419 0.26994,0.8548"
       id="path26" />
    <path
       style="fill:#ffffff;fill-opacity:1;stroke:#000000;stroke-width:0.998;stroke-opacity:1"
       d="m 51.332953,59.835961 c 0.82991,0.71135 -0.001,-0.0856 0.40491,0.49488 0.0608,0.0869 0.15984,0.14124 0.22494,0.22495 0.0412,0.0529 0.0497,0.1263 0.09,0.17995 0.0509,0.0679 0.12906,0.1121 0.17996,0.17996 0.0402,0.0537 0.0528,0.12416 0.09,0.17996 0.0533,0.0799 0.12669,0.14505 0.17996,0.22495 0.1934,0.29011 0.32358,0.65112 0.49488,0.94477 0.0484,0.083 0.13055,0.14261 0.17996,0.22495 0.0416,0.0692 0.0472,0.15647 0.09,0.22495 0.1081,0.17297 0.24436,0.3268 0.35991,0.49488 0.15682,0.2281 0.28187,0.51875 0.40491,0.76482 0.0851,0.10383 0.0777,0.24531 0.13496,0.35992 0.0746,0.14918 0.1834,0.28371 0.22495,0.44989 0.007,0.0291 -0.0166,0.065 0,0.09 0.0186,0.0279 0.0714,0.0171 0.09,0.045 0.0256,0.0384 0.09,0.43516 0.09,0.49489"
       id="path27" />
    <path
       style="fill:#ffffff;fill-opacity:1;stroke:#000000;stroke-width:0.998;stroke-opacity:1"
       d="m 52.277733,58.711221 c 0.37486,0.21153 0.65928,0.54129 0.98977,0.80981 0.35781,0.29072 0.29159,0.15662 0.62985,0.49488 0.19553,0.19553 0.33724,0.44169 0.53987,0.62985 0.87032,0.80816 -0.1124,-0.21363 0.67484,0.49489 0.0557,0.0502 0.0862,0.12303 0.13497,0.17996 0.15136,0.17658 0.34035,0.32103 0.49488,0.49488 0.20595,0.23168 0.41016,0.45515 0.62986,0.67484"
       id="path28" />
    <path
       style="fill:#ffffff;fill-opacity:1;stroke:#000000;stroke-width:0.998;stroke-opacity:1"
       d="m 53.042553,57.091601 c 0.40987,0.34616 0.92824,0.5104 1.39467,0.76482 0.15353,0.0837 0.2911,0.19665 0.44989,0.26994 0.11634,0.0537 0.24532,0.0777 0.35992,0.13497 0.0671,0.0335 0.1167,0.0947 0.17996,0.13496 0.31584,0.201 1.04147,0.66391 1.39467,0.76482 0.15758,0.045 0.29593,-0.032 0.4499,0.045"
       id="path29" />
  </g>
</svg>
